<?xml version="1.0" encoding="UTF-8"?>
<svg width="109px" height="28px" viewBox="0 0 109 28" version="1.1" xmlns="http://www.w3.org/2000/svg" xmlns:xlink="http://www.w3.org/1999/xlink">
    <title>rebrandly-logo</title>
    <defs></defs>
    <g id="workspaces-invite-003-alert-invite-notavailable" stroke="none" fill="#2281c2" stroke-width="1" transform="translate(-62.000000, -20.000000)">
        <g id="nav/header/links">
            <g id="logo" transform="translate(62.000000, 20.000000)">
                <path d="M93.016423,27.1973984 C92.8940195,27.1973984 92.8016962,27.1973984 92.7096043,27.1708797 C92.2491447,26.9378436 91.8798516,26.6015489 91.8798516,26.0312793 C91.8798516,23.9595347 94.8841764,22.0013745 96.7324933,21.6669572 C96.4862979,23.3765925 95.904129,27.1973984 93.016423,27.1973984 Z M78.5443423,12.1565978 C77.6220349,15.2649189 76.4243774,17.8555384 75.1950199,17.8555384 C74.8268837,17.8555384 74.6732429,17.3629476 74.6732429,16.585926 C74.6732429,13.8664677 76.5477065,7.80541773 78.6054284,7.80541773 C79.2815403,7.80541773 79.4351811,8.27172455 79.4652613,8.60825399 C79.1274368,9.82553306 78.8199238,11.0428121 78.5443423,12.1565978 Z M55.0146294,12.5104935 C54.246657,15.3855438 52.8951273,17.8463859 51.7583245,17.8463859 C51.3901883,17.8463859 51.2360847,17.3542644 51.2360847,16.5767735 C51.2360847,13.85755 53.1096228,7.79626525 55.1680388,7.79626525 C55.905931,7.79626525 55.9977915,8.34001609 55.9977915,8.78027357 L55.0146294,12.5104935 Z M33.356835,15.8002213 C31.5446144,15.1783224 30.8685025,13.3912431 30.8685025,11.6039292 C30.8685025,9.35007376 31.912982,7.32995843 33.1416453,7.32995843 C33.9709352,7.38182245 34.3089912,8.67701489 34.3089912,10.3350208 C34.3089912,12.0444213 33.9401608,14.16803 33.356835,15.8002213 Z M31.3597364,18.3647915 C30.3460313,18.3647915 29.9466579,17.4572885 29.9466579,16.0074427 C29.9466579,15.6183452 29.9772009,15.2039024 30.0387498,14.7378302 C30.7451734,15.7225426 31.7285668,16.4993295 32.9572301,16.7844643 C32.4963078,17.7424232 31.9432936,18.3647915 31.3597364,18.3647915 Z M24.4479845,7.30390908 C24.908444,7.30390908 24.9695301,7.74463591 24.9695301,8.15884404 C24.9695301,10.1787247 22.358794,14.2717581 20.5456479,14.2717581 C20.4540188,14.2717581 20.3929327,14.2717581 20.300378,14.2459434 C20.6685142,11.1376224 22.6963872,7.30390908 24.4479845,7.30390908 Z M90.9890128,1.03563766 C91.0510244,1.3465871 91.0808733,1.73521523 91.0808733,2.14965804 C91.0808733,5.18030039 89.3607447,10.7750436 86.8724122,12.4844441 C87.8247998,7.74463591 89.8832158,1.32077243 90.9890128,1.03563766 Z M107.609519,13.8594274 C107.609519,13.8594274 105.246829,17.0644361 99.9011027,19.2922422 L100.174833,17.950114 C102.141157,8.44374413 102.632854,8.15884404 102.632854,7.45950114 C102.632854,6.86341692 102.003019,6.39969156 101.235973,6.35299048 C100.69152,6.31990076 100.020035,6.43043449 100.020035,6.43043449 C100.020035,6.43043449 99.92401,6.89533324 99.8670888,7.09692235 C99.8670888,7.09692235 99.4989526,8.4695588 99.0077187,10.4124648 C97.6554948,14.8420276 97.0411632,17.8463859 95.382352,17.8463859 C94.9211983,17.8463859 94.7372459,17.4838072 94.7372459,16.8623776 C94.7372459,15.8516159 95.382352,13.4170578 95.9973778,11.137153 C96.3657454,9.73870189 96.9324114,8.41487864 96.8569794,7.51159984 C96.7234692,5.91766126 94.1756704,6.208663 94.1756704,6.208663 C94.1756704,6.208663 94.12222,6.57875151 94.0310537,7.09692235 C93.5574051,9.32754459 92.6640211,11.9507845 92.1695477,14.2220062 C91.0912857,16.0283291 89.1990054,18.0270886 87.5792985,18.0270886 C86.7187714,18.0270886 86.3504038,17.5096218 86.3504038,16.3956014 C86.3504038,15.5929999 86.5040445,14.4271155 86.7500086,13.1061084 C90.4665417,13.4172925 92.8016962,6.70876358 92.8016962,3.13390103 C92.8016962,1.3986858 92.248682,0.906094944 91.4494723,0.517936167 C91.2349769,0.258616065 90.7740546,0 90.220809,0 C87.4256577,0 85.6134372,5.46449645 84.4764029,10.6455009 C84.1839302,11.9137052 83.964807,13.1429529 83.8530472,14.2658911 C83.0226004,15.6979013 81.7543699,18.0622905 80.6946188,18.0622905 C80.264471,18.0622905 80.079593,17.6736623 80.079593,16.9740848 C80.079593,13.9699611 84.1857813,3.94495105 84.2274309,2.26230388 C84.2693119,0.566749363 81.7932428,0.746278664 81.7932428,0.746278664 C81.7932428,0.746278664 81.6160006,1.16119083 81.5546832,1.35550489 C81.0937609,2.78000536 80.3873373,5.11177417 79.7419998,7.54656698 C79.4652613,6.9246681 78.9735646,6.30323857 78.1447375,6.30323857 C75.1598491,6.30323857 72.7673107,10.4819297 72.0967521,14.1532453 C72.0863397,14.1670913 72.0754645,14.179764 72.0650521,14.1943141 C71.6966845,14.7122502 69.5762568,18.1310514 68.2249585,18.1310514 C67.8873654,18.1310514 67.7332618,17.9242993 67.7332618,17.5875352 C67.7332618,16.007208 70.713291,11.5264852 70.713291,8.59933619 C70.713291,7.64043851 70.2523687,6.24198739 68.4401482,6.24198739 C66.8431172,6.24198739 65.2757037,8.13256001 64.0167288,10.5675875 L63.8466595,10.5136114 L64.5938072,7.54351616 C64.5938072,7.54351616 63.7696078,6.96737964 63.031947,6.96737964 C62.540713,6.96737964 62.0527185,7.17577444 61.8963011,7.64043851 C61.2220403,9.64459568 60.6488954,11.9463256 60.1784863,14.1905592 C60.1775607,14.1919673 60.1766352,14.1931407 60.1761724,14.1943141 C58.7318567,16.7070202 57.7797004,18.0791873 57.1348257,18.0791873 C56.8580872,18.0791873 56.7049092,17.8203366 56.7049092,17.4321778 C56.7049092,16.1890841 57.7797004,13.3912431 58.6089903,10.1015154 C58.6397648,9.97173796 58.6397648,9.84242993 58.6397648,9.71288722 C58.6397648,8.7544589 57.7186143,8.21070806 56.9499478,8.21070806 L56.7659953,8.21070806 C56.7049092,7.40763712 55.9360113,6.29408609 54.7075793,6.29408609 C52.8097456,6.29408609 51.1520914,7.98400831 50.0236185,10.1578383 C49.9865966,10.2200282 49.9500375,10.2864423 49.9148667,10.3606008 C49.3928583,11.3708931 48.1329578,13.2614657 47.1197155,13.2614657 C46.6587932,13.2614657 46.4130605,13.0542443 46.4130605,12.6916655 C46.4130605,11.7848666 47.8872251,9.37659246 47.8872251,7.92557329 C47.8872251,6.81202226 47.4573087,6.24198739 46.3207372,6.24198739 C44.8157982,6.24198739 43.4635743,7.69253721 42.3577773,9.68730723 L42.2041366,9.605639 L42.8712244,7.49165214 C42.8712244,7.49165214 42.0812702,6.99319431 41.3743839,6.99319431 C40.8523755,6.99319431 40.3606788,7.19994636 40.207038,7.64043851 C39.4608159,9.79361674 38.8136273,12.2701824 38.3756123,14.379945 C37.6407282,15.5556859 36.5911582,15.9605069 35.568429,16.0588373 C36.5825968,14.3494368 37.1661541,12.2772227 37.1661541,10.4901435 C37.1661541,8.13279469 36.152449,6.24198739 33.7557456,6.24198739 C33.1108709,6.24198739 32.5125049,6.36589781 32.0358483,6.47549283 C32.0358483,6.47549283 33.2071278,3.20923294 33.279089,2.37142953 C33.3406379,1.6547204 32.6617493,0.899523937 31.927328,0.824896071 C31.2544555,0.756604533 30.8816915,0.774440123 30.8816915,0.774440123 C30.8816915,0.774440123 30.6646508,1.50147512 30.5607582,1.83894327 C30.1620789,3.08180233 29.7930171,4.45490814 28.1339745,10.9817956 C27.826693,12.1903916 27.6311712,13.2689755 27.5332947,14.2168432 C26.7294573,15.2949578 25.1650519,18.053138 22.2664707,18.053138 C20.3614641,18.053138 20.2388292,16.0848867 20.2388292,14.9452863 C20.6382026,15.048545 21.0373446,15.100409 21.4064064,15.100409 C24.6631741,15.100409 26.8745367,11.6039292 26.8745367,9.11727236 C26.8745367,7.84812927 26.2907481,6.8636516 25.0003045,6.73434357 C24.6317055,6.47549283 23.9250506,6.29408609 23.2496328,6.29408609 C20.0238709,6.29408609 17.3814349,11.2925104 17.3814349,15.1525077 C17.3814349,15.197566 17.3846743,15.241451 17.3853685,15.2862746 C16.3501444,16.5068392 14.9139272,17.7891243 14.0279475,17.8414577 C12.9665768,17.7574427 12.8663863,15.1750369 11.4806114,13.3806826 C13.4996917,13.221101 15.0379505,12.5273904 16.1199146,11.5527692 C17.5811216,10.3207054 18.2870824,8.60637656 18.2870824,6.94273837 C18.2870824,3.36153949 15.4095575,0.749798847 11.0053432,0.749798847 C11.0041862,0.749798847 11.0030293,0.749798847 11.0018724,0.749798847 C11.0009468,0.749798847 11.0002527,0.749798847 10.9993271,0.749798847 C4.2421415,0.749798847 0.193337144,3.85389567 0.0283584317,4.97941531 C-0.105614464,5.89560145 0.256968485,6.57523133 0.656804691,7.02863082 C1.09065474,7.6350409 1.67351782,7.93355237 1.67351782,7.93355237 C1.67351782,7.93355237 2.04535624,7.37736355 2.26563637,7.14221537 C3.00260299,6.35533727 3.91866291,5.47247553 5.08091827,4.68958697 C5.40069468,4.49339547 7.62894853,3.16910286 10.0656818,2.76263913 C10.5381734,2.70350007 11.1166402,2.65374816 11.7189397,2.6521054 C12.6472631,2.69458227 13.5485143,2.93888293 14.3312955,3.49436771 C14.538618,3.66662197 15.5173837,4.5396272 15.5872625,5.75268204 C15.5874938,5.75596755 15.5879566,5.75878369 15.588188,5.7620692 C15.5955924,5.88809173 15.599526,6.0136449 15.599526,6.13849403 C15.599526,7.5120692 15.189046,8.86569666 14.4342626,9.99637924 C13.5640172,11.2199946 12.283986,12.1636382 10.6598828,12.5529704 C10.5067048,12.449477 10.3234466,12.3213424 10.1394942,12.2415516 C10.2227934,11.9930267 10.3072495,11.7461446 10.393094,11.5009052 L11.1275153,9.48172858 C11.5724719,8.29026418 12.0158089,7.12461446 12.4089348,5.96178088 C12.5574851,5.5304412 12.701639,5.09933619 12.8346864,4.66823119 C13.0538096,3.96020518 12.3522451,3.80109293 11.8108002,3.75814671 C11.7291207,3.75181038 11.6423507,3.75087166 11.5530355,3.75368781 C10.9296797,3.77105404 10.1728138,3.98907067 10.1728138,3.98907067 C9.1058898,7.05913906 8.02369423,9.5889768 7.30153636,11.8911761 C6.70502147,12.049819 6.4227297,12.3940928 6.4227297,12.7376626 C6.4227297,12.8585222 6.45512384,12.9789124 6.52315153,13.0889768 C6.57451937,13.2168768 6.67008208,13.3349202 6.81446737,13.4304345 C6.33804217,15.1396004 5.36598667,18.3793416 5.36598667,19.0071074 C5.36598667,19.7219391 6.02520736,20.0664476 6.62125948,20.0664476 C6.87856149,20.0664476 7.52227927,20.0120021 7.52227927,20.0120021 C7.52227927,20.0120021 7.52713839,19.996748 7.53662524,19.9681172 C7.54541794,19.9674132 7.55166538,19.9667091 7.55166538,19.9667091 C7.55166538,19.9667091 8.77963456,16.2665281 9.45574648,14.2454741 C10.4682946,16.6579724 10.6684441,18.7693778 12.0137264,19.4384471 C12.3210079,19.6064771 12.6879872,19.6977672 13.1398854,19.6977672 C14.8907885,19.6977672 16.3945706,18.1934759 17.5348443,16.6460038 C17.9124673,18.3795762 19.0191899,19.6334652 21.0991249,19.6334652 C24.0837818,19.6334652 26.0818059,18.0064369 27.4638787,15.7518774 C27.5210312,18.4006973 28.6437194,19.6334652 30.4688976,19.6334652 C32.251038,19.6334652 33.7869828,18.5454942 34.9543287,16.9654016 C36.1991891,16.8954673 37.2892518,16.4817286 38.1125257,15.7422556 C37.9003441,16.939587 37.7802544,17.9315744 37.7802544,18.5454942 C37.7802544,18.9470296 37.7987653,19.4278865 37.7987653,19.4278865 C37.7987653,19.4278865 38.3103613,19.6853292 38.9476002,19.6853292 C39.4700714,19.6853292 39.9925425,19.4006638 40.0841717,18.8306289 L40.5758684,16.0848867 C41.3743839,11.7069532 43.8939536,8.00348666 44.9384331,8.00348666 C45.1533914,8.00348666 45.2452519,8.13279469 45.2452519,8.31420142 C45.2452519,9.11727236 43.8939536,10.852957 43.8939536,12.2772227 C43.8939536,13.8312659 45.0617622,14.2717581 46.2904256,14.2717581 C47.2592417,14.2717581 48.157022,13.7838608 48.8909806,13.1136181 C48.6204896,14.14245 48.4714765,15.1656497 48.4714765,16.0844173 C48.4714765,18.1054714 49.1779001,19.6074159 50.8367113,19.6074159 C51.819642,19.6074159 52.9869879,18.4936301 54.000693,16.7321309 C53.9701499,16.9142417 53.9701499,17.095179 53.9701499,17.2249564 C53.9701499,19.1673931 55.1076469,19.6074159 56.0595718,19.6074159 C57.5369758,19.6074159 58.8470873,17.9498793 59.7270508,16.4845447 C59.6421319,16.9445152 59.561378,17.396976 59.4861773,17.8372335 C59.3672445,18.5281279 59.3748803,19.3563095 59.3748803,19.3563095 C59.3748803,19.3563095 60.0528433,19.6853292 60.6981808,19.6853292 C61.2822008,19.6853292 61.8347522,19.4001944 61.9576186,18.8306289 C62.0504046,18.2608288 62.44677,16.3803473 62.6152196,15.7279402 C63.1358396,13.7214362 66.3206461,8.02930133 67.4567547,8.02930133 C67.7943479,8.02930133 67.9479887,8.3144361 67.9479887,8.65120021 C67.9479887,10.3861808 64.9987339,15.074829 64.9987339,17.4058938 C64.9987339,18.9597023 66.1670053,19.6853292 67.3952059,19.6853292 C69.287949,19.6853292 70.9636514,17.5044589 71.9127997,15.8994904 C71.9114113,15.9644964 71.9086347,16.0302065 71.9086347,16.0940392 C71.9086347,18.1141545 72.6150583,19.6165683 74.2741009,19.6165683 C75.3181176,19.6165683 76.5477065,18.451388 77.5917233,16.5605807 C77.5609488,16.7157034 77.5609488,16.8710607 77.5609488,16.9485048 C77.5609488,18.5027826 78.2673724,19.6165683 79.4964985,19.6165683 C81.7117947,19.6165683 82.961977,17.6811721 83.7741443,16.0292678 C83.8259749,18.2183519 84.5541489,19.6853292 86.5651306,19.6853292 C88.586062,19.6853292 90.6058364,17.7910017 91.8708275,16.0076774 C91.8391275,16.3139332 91.8183027,16.6100979 91.8183027,16.8879576 C91.8183027,18.5196795 92.4333286,19.6074159 94.2758608,19.6074159 C95.5665358,19.6074159 96.6105525,18.8038756 97.4095308,17.4058938 C97.2251156,18.3126928 97.0494931,19.1948505 96.9259326,19.9718721 C93.5821635,20.7923092 90.8092254,22.6124782 90.8092254,25.4617138 C90.8092254,26.8866837 92.2179075,28 93.7237721,28 C95.9318954,28 98.0377457,26.1326606 99.4411059,21.1710809 C104.358767,19.9988601 108.1387,18.169304 108.744471,16.9764315 C109.284527,15.9128671 108.996914,14.3060212 107.609519,13.8594274 Z"></path>
            </g>
        </g>
    </g>
</svg>